<svg version="1.1" viewBox="0.0 0.0 604.7244094488188 604.7244094488188" width="32" height="32" fill="none" stroke="none" stroke-linecap="square" stroke-miterlimit="10" xmlns:xlink="http://www.w3.org/1999/xlink" xmlns="http://www.w3.org/2000/svg"><clipPath id="p.0"><path d="m0 0l604.7244 0l0 604.7244l-604.7244 0l0 -604.7244z" clip-rule="nonzero"/></clipPath><g clip-path="url(#p.0)"><path fill="#000000" fill-opacity="0.0" d="m0 0l604.7244 0l0 604.7244l-604.7244 0z" fill-rule="evenodd"/><path fill="#6aa84f" d="m35.6063 35.6063l533.5118 0l0 533.5118l-533.5118 0z" fill-rule="evenodd"/><path fill="#3c78d8" d="m76.72966 75.92383l206.48817 0l0 206.48819l-206.48817 0z" fill-rule="evenodd"/><path fill="#f1c232" d="m321.506 75.92383l206.48819 0l0 206.48819l-206.48819 0z" fill-rule="evenodd"/><path fill="#a64d79" d="m76.72966 322.31143l206.48817 0l0 206.48819l-206.48817 0z" fill-rule="evenodd"/><path fill="#674ea7" d="m321.506 322.31143l206.48819 0l0 206.48819l-206.48819 0z" fill-rule="evenodd"/></g></svg>